<svg xmlns="http://www.w3.org/2000/svg" version="1.1" xmlns:xlink="http://www.w3.org/1999/xlink" xmlns:svgjs="http://svgjs.dev/svgjs" width="1500" height="935" viewBox="0 0 1500 935"><g transform="matrix(1,0,0,1,-0.9090909090909918,0.3785425101214628)"><svg viewBox="0 0 396 247" data-background-color="#000000" preserveAspectRatio="xMidYMid meet" height="935" width="1500" xmlns="http://www.w3.org/2000/svg" xmlns:xlink="http://www.w3.org/1999/xlink"><g id="tight-bounds" transform="matrix(1,0,0,1,0.2400000000000091,-0.09999999999999432)"><svg viewBox="0 0 395.52 247.2" height="247.2" width="395.52"><rect width="395.52" height="247.2" fill="url(#81b5833e-c7d4-443e-a586-95204c3edf09)" mask="url(#14dbcc80-b228-4cc1-a1f4-84553fbdebf6)" data-fill-palette-color="tertiary"></rect><g><svg></svg></g><g><svg viewBox="0 0 395.52 247.2" height="247.2" width="395.52"><g transform="matrix(1,0,0,1,147.54510219619326,47.215199999999996)"><svg viewBox="0 0 100.42979560761349 152.7696" height="152.7696" width="100.42979560761349"><g><svg viewBox="0 0 100.42979560761349 152.7696" height="152.7696" width="100.42979560761349"><g><svg viewBox="0 0 100.42979560761349 152.7696" height="152.7696" width="100.42979560761349"><g><svg viewBox="0 0 100.42979560761349 152.7696" height="152.7696" width="100.42979560761349"><g id="textblocktransform"><svg viewBox="0 0 100.42979560761349 152.7696" height="152.7696" width="100.42979560761349" id="textblock"><g><svg viewBox="0 0 100.42979560761349 152.7696" height="152.7696" width="100.42979560761349"><g transform="matrix(1,0,0,1,0,0)"><svg width="100.42979560761349" viewBox="-0.95 -33.65 22.45 34.15" height="152.7696" data-palette-color="url(#f7a9a499-d2be-4e9e-880d-ab85af85d0aa)"></svg></g></svg></g></svg></g></svg></g></svg></g></svg></g></svg></g><g><path d="M173.815 0c30.402 0 58.24 10.976 79.768 29.183l-11.147 0c-19.26-14.022-42.974-22.294-68.621-22.295-25.647 0-49.361 8.272-68.621 22.295l-11.147 0c21.528-18.206 49.366-29.183 79.768-29.183zM173.815 247.2c-30.402 0-58.24-10.976-79.768-29.183l11.147 0c19.26 14.022 42.974 22.294 68.621 22.295 25.647 0 49.361-8.272 68.621-22.295l11.147 0c-21.528 18.206-49.366 29.183-79.768 29.183z" fill="url(#81b5833e-c7d4-443e-a586-95204c3edf09)" stroke="transparent" data-fill-palette-color="tertiary"></path></g></svg></g><defs></defs><mask id="41995b18-906a-4c12-9469-5409de9869cb"><g id="SvgjsG2262"><svg viewBox="0 0 395.52 247.2" height="247.2" width="395.52"><g><svg></svg></g><g><svg viewBox="0 0 395.52 247.2" height="247.2" width="395.52"><g transform="matrix(1,0,0,1,147.54510219619326,47.215199999999996)"><svg viewBox="0 0 100.42979560761349 152.7696" height="152.7696" width="100.42979560761349"><g><svg viewBox="0 0 100.42979560761349 152.7696" height="152.7696" width="100.42979560761349"><g><svg viewBox="0 0 100.42979560761349 152.7696" height="152.7696" width="100.42979560761349"><g><svg viewBox="0 0 100.42979560761349 152.7696" height="152.7696" width="100.42979560761349"><g id="SvgjsG2261"><svg viewBox="0 0 100.42979560761349 152.7696" height="152.7696" width="100.42979560761349" id="SvgjsSvg2260"><g><svg viewBox="0 0 100.42979560761349 152.7696" height="152.7696" width="100.42979560761349"><g transform="matrix(1,0,0,1,0,0)"><svg width="100.42979560761349" viewBox="-0.95 -33.65 22.45 34.15" height="152.7696" data-palette-color="url(#f7a9a499-d2be-4e9e-880d-ab85af85d0aa)"><path d="M21.35-1.9Q21.5-1.3 21.5-0.95L21.5-0.95Q21.5-0.5 21.3-0.28 21.1-0.05 20.6 0.15L20.6 0.15Q19.7 0.5 19.3 0.5L19.3 0.5Q18.75 0.5 18.6-0.2L18.6-0.2 16.45-12.95 7.15-12 2.4-1.1Q2.05-0.35 1.7-0.08 1.35 0.2 0.85 0.2L0.85 0.2Q-0.1 0.2-0.53 0.05-0.95-0.1-0.95-0.5L-0.95-0.5Q-0.95-0.8-0.8-1.15L-0.8-1.15 12.65-31.75Q13-32.55 13.23-32.83 13.45-33.1 13.95-33.3L13.95-33.3Q15-33.65 15.3-33.65L15.3-33.65Q15.8-33.65 15.85-33.05L15.85-33.05 18.85-16 19.1-16.05Q19.5-16.1 20.1-16.1L20.1-16.1Q20.65-16.1 20.9-15.88 21.15-15.65 21.3-14.9L21.3-14.9Q21.4-14.3 21.4-14.15L21.4-14.15Q21.4-13.75 20.98-13.55 20.55-13.35 19.35-13.2L19.35-13.2 21.35-1.9ZM15.95-15.75L14.6-23.85 14.15-28.05 8.45-15 15.95-15.75Z" opacity="1" transform="matrix(1,0,0,1,0,0)" fill="white" class="wordmark-text-0" id="SvgjsPath2259"></path></svg></g></svg></g></svg></g></svg></g></svg></g></svg></g></svg></g><g><path d="M173.815 0c30.402 0 58.24 10.976 79.768 29.183l-11.147 0c-19.26-14.022-42.974-22.294-68.621-22.295-25.647 0-49.361 8.272-68.621 22.295l-11.147 0c21.528-18.206 49.366-29.183 79.768-29.183zM173.815 247.2c-30.402 0-58.24-10.976-79.768-29.183l11.147 0c19.26 14.022 42.974 22.294 68.621 22.295 25.647 0 49.361-8.272 68.621-22.295l11.147 0c-21.528 18.206-49.366 29.183-79.768 29.183z" fill="black" stroke="transparent"></path></g></svg></g><defs><mask></mask></defs></svg><rect width="395.52" height="247.2" fill="black" stroke="none" visibility="hidden"></rect></g></mask><linearGradient x1="0.054" x2="0.941" y1="0.5" y2="0.5" id="f7a9a499-d2be-4e9e-880d-ab85af85d0aa"><stop stop-color="#26282a" offset="0"></stop><stop stop-color="#9e9fa0" offset="0.498"></stop><stop stop-color="#26282a" offset="1"></stop></linearGradient><rect width="395.52" height="247.2" fill="url(#f7a9a499-d2be-4e9e-880d-ab85af85d0aa)" mask="url(#41995b18-906a-4c12-9469-5409de9869cb)" data-fill-palette-color="primary"></rect><mask id="14dbcc80-b228-4cc1-a1f4-84553fbdebf6"><g id="SvgjsG2285"><svg viewBox="0 0 395.52 247.2" height="247.2" width="395.52"><g><svg></svg></g><g><svg viewBox="0 0 395.52 247.2" height="247.2" width="395.52"><g transform="matrix(1,0,0,1,147.54510219619326,47.215199999999996)"><svg viewBox="0 0 100.42979560761349 152.7696" height="152.7696" width="100.42979560761349"><g><svg viewBox="0 0 100.42979560761349 152.7696" height="152.7696" width="100.42979560761349"><g><svg viewBox="0 0 100.42979560761349 152.7696" height="152.7696" width="100.42979560761349"><g><svg viewBox="0 0 100.42979560761349 152.7696" height="152.7696" width="100.42979560761349"><g id="SvgjsG2284"><svg viewBox="0 0 100.42979560761349 152.7696" height="152.7696" width="100.42979560761349" id="SvgjsSvg2283"><g><svg viewBox="0 0 100.42979560761349 152.7696" height="152.7696" width="100.42979560761349"><g transform="matrix(1,0,0,1,0,0)"><svg width="100.42979560761349" viewBox="-0.95 -33.65 22.45 34.15" height="152.7696" data-palette-color="url(#f7a9a499-d2be-4e9e-880d-ab85af85d0aa)"></svg></g></svg></g></svg></g></svg></g></svg></g></svg></g></svg></g><g><path d="M173.815 0c30.402 0 58.24 10.976 79.768 29.183l-11.147 0c-19.26-14.022-42.974-22.294-68.621-22.295-25.647 0-49.361 8.272-68.621 22.295l-11.147 0c21.528-18.206 49.366-29.183 79.768-29.183zM173.815 247.2c-30.402 0-58.24-10.976-79.768-29.183l11.147 0c19.26 14.022 42.974 22.294 68.621 22.295 25.647 0 49.361-8.272 68.621-22.295l11.147 0c-21.528 18.206-49.366 29.183-79.768 29.183z" fill="white" stroke="transparent"></path></g></svg></g><defs><mask></mask></defs><mask><g id="SvgjsG2282"><svg viewBox="0 0 395.52 247.2" height="247.2" width="395.52"><g><svg></svg></g><g><svg viewBox="0 0 395.52 247.2" height="247.2" width="395.52"><g transform="matrix(1,0,0,1,147.54510219619326,47.215199999999996)"><svg viewBox="0 0 100.42979560761349 152.7696" height="152.7696" width="100.42979560761349"><g><svg viewBox="0 0 100.42979560761349 152.7696" height="152.7696" width="100.42979560761349"><g><svg viewBox="0 0 100.42979560761349 152.7696" height="152.7696" width="100.42979560761349"><g><svg viewBox="0 0 100.42979560761349 152.7696" height="152.7696" width="100.42979560761349"><g id="SvgjsG2281"><svg viewBox="0 0 100.42979560761349 152.7696" height="152.7696" width="100.42979560761349" id="SvgjsSvg2280"><g><svg viewBox="0 0 100.42979560761349 152.7696" height="152.7696" width="100.42979560761349"><g transform="matrix(1,0,0,1,0,0)"><svg width="100.42979560761349" viewBox="-0.95 -33.65 22.45 34.15" height="152.7696" data-palette-color="url(#f7a9a499-d2be-4e9e-880d-ab85af85d0aa)"><path d="M21.35-1.9Q21.5-1.3 21.5-0.95L21.5-0.95Q21.5-0.5 21.3-0.28 21.1-0.05 20.6 0.15L20.6 0.15Q19.7 0.5 19.3 0.5L19.3 0.5Q18.75 0.5 18.6-0.2L18.6-0.2 16.45-12.95 7.15-12 2.4-1.1Q2.05-0.35 1.7-0.08 1.35 0.2 0.85 0.2L0.85 0.2Q-0.1 0.2-0.53 0.05-0.95-0.1-0.95-0.5L-0.95-0.5Q-0.95-0.8-0.8-1.15L-0.8-1.15 12.65-31.75Q13-32.55 13.23-32.83 13.45-33.1 13.95-33.3L13.95-33.3Q15-33.65 15.3-33.65L15.3-33.65Q15.8-33.65 15.85-33.05L15.85-33.05 18.85-16 19.1-16.05Q19.5-16.1 20.1-16.1L20.1-16.1Q20.65-16.1 20.9-15.88 21.15-15.65 21.3-14.9L21.3-14.9Q21.4-14.3 21.4-14.15L21.4-14.15Q21.4-13.75 20.98-13.55 20.55-13.35 19.35-13.2L19.35-13.2 21.35-1.9ZM15.95-15.75L14.6-23.85 14.15-28.05 8.45-15 15.95-15.75Z" opacity="1" transform="matrix(1,0,0,1,0,0)" fill="black" class="wordmark-text-0" id="SvgjsPath2279"></path></svg></g></svg></g></svg></g></svg></g></svg></g></svg></g></svg></g><g><path d="M173.815 0c30.402 0 58.24 10.976 79.768 29.183l-11.147 0c-19.26-14.022-42.974-22.294-68.621-22.295-25.647 0-49.361 8.272-68.621 22.295l-11.147 0c21.528-18.206 49.366-29.183 79.768-29.183zM173.815 247.2c-30.402 0-58.24-10.976-79.768-29.183l11.147 0c19.26 14.022 42.974 22.294 68.621 22.295 25.647 0 49.361-8.272 68.621-22.295l11.147 0c-21.528 18.206-49.366 29.183-79.768 29.183z" fill="black" stroke="transparent"></path></g></svg></g><defs><mask></mask></defs></svg><rect width="395.52" height="247.2" fill="black" stroke="none" visibility="hidden"></rect></g></mask></svg><rect width="395.52" height="247.2" fill="black" stroke="none" visibility="hidden"></rect></g></mask><linearGradient x1="0.054" x2="0.941" y1="0.5" y2="0.5" id="81b5833e-c7d4-443e-a586-95204c3edf09"><stop stop-color="#26282a" offset="0"></stop><stop stop-color="#9e9fa0" offset="0.498"></stop><stop stop-color="#26282a" offset="1"></stop></linearGradient></svg><rect width="395.52" height="247.2" fill="none" stroke="none" visibility="hidden"></rect></g></svg></g></svg>