<svg version="1.2" xmlns="http://www.w3.org/2000/svg" viewBox="0 0 3000 3000" width="3000" height="3000">
	<title>vecteezy_alphabet-letters-initials-monogram-logo-sg-gs-s-and-g_7731788-ai</title>
	<style>
		.s0 { fill: #ffffff }
		.s1 { fill: #ffa500 }
	</style>
	<g id="Layer 1">
		<path id="&lt;Path&gt;" class="s0" d="M 3345.269531 983.808594 C 3345.269531 980.789062 3343.738281 977.761719 3343.738281 977.761719 C 3342.21875 977.761719 3342.21875 980.789062 3339.210938 983.808594 C 3339.210938 988.371094 3340.699219 989.890625 3342.21875 989.890625 C 3345.269531 989.890625 3346.789062 988.371094 3345.269531 983.808594 Z M 3243.75 1161.058594 C 3243.75 1158.03125 3242.261719 1158.03125 3239.210938 1162.578125 C 3239.210938 1167.128906 3237.691406 1171.660156 3237.691406 1174.691406 C 3237.691406 1180.761719 3237.691406 1180.761719 3240.730469 1174.691406 C 3243.75 1171.660156 3243.75 1165.601562 3243.75 1161.058594 Z M 3236.199219 1195.898438 C 3236.199219 1194.398438 3233.160156 1194.398438 3233.160156 1195.898438 C 3230.121094 1198.929688 3230.121094 1203.480469 3230.121094 1208.03125 C 3231.640625 1215.609375 3231.640625 1215.609375 3233.160156 1208.03125 C 3234.679688 1203.480469 3236.199219 1198.929688 3236.199219 1195.898438 Z M 3225.578125 1233.769531 C 3224.058594 1236.800781 3222.570312 1244.371094 3222.570312 1247.398438 C 3224.058594 1250.449219 3221.050781 1253.480469 3218 1251.949219 C 3210.429688 1250.449219 3210.429688 1254.980469 3218 1261.039062 C 3224.058594 1264.078125 3227.101562 1261.039062 3228.628906 1241.351562 C 3228.628906 1230.738281 3228.628906 1229.238281 3225.578125 1233.769531 Z M 2771.128906 1226.191406 C 2765.078125 1230.738281 2763.550781 1233.769531 2765.078125 1233.769531 C 2766.570312 1233.769531 2769.609375 1230.738281 2771.128906 1226.191406 C 2775.671875 1220.140625 2775.671875 1220.140625 2771.128906 1226.191406 Z M 3348.28125 1018.660156 C 3327.070312 1080.769531 3295.269531 1191.371094 3287.691406 1235.289062 C 3281.628906 1264.078125 3274.050781 1288.320312 3274.050781 1288.320312 C 3271.011719 1288.320312 3271.011719 1291.351562 3272.539062 1292.851562 C 3275.578125 1297.398438 3271.011719 1332.25 3266.480469 1341.328125 C 3261.949219 1348.910156 3261.949219 1348.910156 3258.898438 1336.789062 C 3257.378906 1326.191406 3248.308594 1323.140625 3248.308594 1332.25 C 3249.839844 1341.328125 3239.210938 1338.300781 3237.691406 1329.21875 C 3234.679688 1311.039062 3234.679688 1311.039062 3230.121094 1318.609375 C 3222.570312 1332.25 3219.519531 1326.191406 3221.050781 1283.769531 L 3222.570312 1270.140625 L 3218 1285.269531 C 3214.988281 1303.460938 3208.898438 1309.511719 3202.851562 1306.480469 C 3199.839844 1306.480469 3193.78125 1304.980469 3192.261719 1304.980469 C 3184.679688 1304.980469 3149.839844 1291.351562 3148.320312 1286.800781 C 3146.789062 1286.800781 3143.78125 1285.269531 3142.261719 1285.269531 C 3139.25 1285.269531 3131.671875 1280.738281 3124.089844 1276.191406 C 3116.519531 1271.640625 3110.460938 1267.109375 3108.941406 1270.140625 C 3107.421875 1271.640625 3107.421875 1256.5 3105.898438 1227.710938 C 3105.898438 1221.660156 3108.941406 1209.53125 3110.460938 1203.480469 C 3111.949219 1197.421875 3115 1179.238281 3116.519531 1158.03125 C 3119.53125 1139.851562 3122.570312 1123.191406 3124.089844 1121.679688 C 3130.148438 1114.101562 3127.109375 1106.53125 3119.53125 1108.050781 C 3113.480469 1108.050781 3105.898438 1106.53125 3102.878906 1106.53125 C 3098.320312 1105.019531 3095.308594 1105.019531 3095.308594 1105.019531 C 3095.308594 1108.050781 3087.730469 1111.070312 3080.160156 1112.578125 C 3040.78125 1118.648438 2996.828125 1133.789062 2949.878906 1159.550781 C 2915.039062 1177.71875 2898.359375 1188.320312 2860.511719 1221.660156 C 2819.609375 1256.5 2751.441406 1339.820312 2752.929688 1351.929688 C 2752.929688 1354.960938 2807.460938 1368.589844 2857.460938 1376.171875 C 2919.570312 1386.78125 2948.359375 1394.351562 2949.878906 1400.410156 C 2949.878906 1401.929688 2954.410156 1403.441406 2957.460938 1403.441406 C 2980.160156 1400.410156 3060.46875 1457.980469 3096.828125 1501.910156 C 3108.941406 1517.050781 3128.628906 1538.261719 3139.25 1550.378906 C 3186.199219 1600.371094 3207.410156 1636.730469 3211.949219 1674.601562 C 3222.570312 1759.429688 3140.738281 1889.710938 3036.210938 1959.398438 C 2975.621094 2000.300781 2930.191406 2015.460938 2858.980469 2024.539062 C 2831.71875 2027.570312 2798.398438 2029.089844 2784.761719 2029.089844 C 2737.808594 2024.539062 2722.648438 2018.488281 2698.398438 1992.71875 C 2686.289062 1980.609375 2662.039062 1954.851562 2640.859375 1936.671875 C 2622.660156 1916.980469 2601.449219 1895.769531 2595.390625 1888.199219 C 2581.761719 1873.050781 2577.230469 1854.871094 2586.289062 1841.238281 L 2592.351562 1832.160156 L 2609.03125 1848.820312 C 2642.351562 1880.628906 2646.910156 1883.660156 2671.140625 1883.660156 C 2695.390625 1885.171875 2769.609375 1877.589844 2789.300781 1871.539062 C 2792.339844 1868.511719 2805.980469 1865.480469 2815.039062 1860.929688 C 2824.140625 1857.898438 2836.25 1854.871094 2840.820312 1851.839844 C 2857.460938 1847.300781 2898.359375 1824.578125 2927.148438 1806.398438 C 2965.039062 1780.640625 3010.46875 1735.210938 3033.199219 1701.871094 C 3069.558594 1651.890625 3095.308594 1579.171875 3083.199219 1559.46875 C 3077.109375 1548.859375 3022.578125 1530.699219 2981.679688 1523.121094 C 2916.558594 1514.019531 2883.210938 1506.460938 2837.769531 1492.828125 C 2769.609375 1471.609375 2754.460938 1462.519531 2721.128906 1424.648438 C 2709.019531 1411.019531 2681.761719 1380.71875 2660.550781 1357.988281 C 2613.558594 1308.011719 2604.5 1295.878906 2606.011719 1273.160156 C 2607.5 1248.929688 2610.550781 1238.320312 2628.710938 1209.53125 C 2659.03125 1158.03125 2736.289062 1083.808594 2795.359375 1042.898438 C 2898.359375 974.730469 3025.621094 945.941406 3134.691406 967.148438 C 3149.839844 970.179688 3164.988281 971.710938 3166.519531 971.710938 C 3166.519531 970.179688 3171.050781 956.550781 3180.148438 938.378906 C 3193.78125 905.039062 3207.410156 885.359375 3211.949219 892.941406 C 3211.949219 895.960938 3214.988281 897.46875 3218 897.46875 C 3225.578125 895.960938 3264.960938 927.78125 3271.011719 935.339844 C 3274.050781 941.410156 3277.101562 942.921875 3283.160156 939.890625 C 3289.210938 938.378906 3290.738281 938.378906 3292.21875 947.46875 C 3292.21875 953.519531 3293.738281 958.070312 3295.269531 956.550781 C 3298.308594 956.550781 3299.800781 961.101562 3301.320312 962.621094 C 3301.320312 970.179688 3302.839844 968.679688 3305.859375 962.621094 C 3311.941406 953.519531 3313.429688 953.519531 3339.210938 973.230469 C 3355.851562 983.808594 3357.378906 989.890625 3348.28125 1018.660156 Z M 3348.28125 1018.660156 "/>
		<path id="&lt;Path&gt;" class="s1" d="M 2557.378906 1480.699219 C 2558.898438 1480.699219 2558.898438 1483.730469 2558.898438 1485.25 C 2554.371094 1491.300781 2554.371094 1489.789062 2554.371094 1483.730469 C 2554.371094 1480.699219 2555.859375 1479.179688 2557.378906 1480.699219 Z M 2540.730469 1448.890625 C 2540.730469 1445.859375 2543.75 1442.828125 2545.269531 1442.828125 C 2546.789062 1442.828125 2549.800781 1444.351562 2549.800781 1447.378906 C 2549.800781 1448.890625 2546.789062 1451.921875 2545.269531 1451.921875 C 2543.75 1454.941406 2540.730469 1451.921875 2540.730469 1448.890625 Z M 2563.429688 1465.550781 C 2560.421875 1465.550781 2554.371094 1465.550781 2549.800781 1468.578125 C 2545.269531 1468.578125 2540.730469 1468.578125 2540.730469 1465.550781 C 2537.691406 1461.011719 2540.730469 1459.488281 2549.800781 1461.011719 C 2554.371094 1461.011719 2560.421875 1459.488281 2560.421875 1457.980469 C 2561.941406 1454.941406 2563.429688 1456.460938 2564.960938 1459.488281 C 2566.480469 1462.519531 2564.960938 1465.550781 2563.429688 1465.550781 Z M 2533.148438 1448.890625 C 2536.171875 1450.410156 2536.171875 1453.429688 2536.171875 1454.941406 C 2531.628906 1461.011719 2530.121094 1459.488281 2530.121094 1451.921875 C 2530.121094 1448.890625 2531.628906 1447.378906 2533.148438 1448.890625 Z M 2536.171875 1494.328125 C 2533.148438 1495.851562 2530.121094 1498.878906 2530.121094 1495.851562 C 2528.589844 1495.851562 2528.589844 1491.300781 2527.101562 1488.28125 C 2527.101562 1482.21875 2527.101562 1482.21875 2531.628906 1485.25 C 2534.640625 1488.28125 2536.171875 1491.300781 2536.171875 1494.328125 Z M 2524.058594 1411.019531 C 2524.058594 1407.988281 2524.058594 1406.46875 2527.101562 1407.988281 C 2527.101562 1407.988281 2530.121094 1411.019531 2530.121094 1412.539062 C 2530.121094 1415.558594 2527.101562 1415.558594 2527.101562 1415.558594 C 2524.058594 1415.558594 2524.058594 1414.039062 2524.058594 1411.019531 Z M 2521.011719 1454.941406 C 2521.011719 1451.921875 2524.058594 1450.410156 2524.058594 1450.410156 C 2524.058594 1450.410156 2525.578125 1451.921875 2525.578125 1454.941406 C 2525.578125 1457.980469 2524.058594 1457.980469 2522.539062 1457.980469 C 2519.519531 1457.980469 2519.519531 1457.980469 2521.011719 1454.941406 Z M 2516.480469 1495.851562 C 2516.480469 1498.878906 2513.46875 1500.390625 2513.46875 1500.390625 C 2511.949219 1500.390625 2510.429688 1498.878906 2510.429688 1495.851562 C 2510.429688 1494.328125 2513.46875 1492.828125 2514.960938 1492.828125 C 2516.480469 1492.828125 2518 1494.328125 2516.480469 1495.851562 Z M 2518 1412.539062 C 2518 1420.101562 2507.378906 1421.621094 2504.371094 1414.039062 C 2504.371094 1411.019531 2505.890625 1407.988281 2508.898438 1407.988281 C 2518 1404.960938 2518 1404.960938 2518 1412.539062 Z M 2507.378906 1489.789062 C 2501.320312 1498.878906 2499.839844 1498.878906 2496.789062 1491.300781 C 2495.269531 1489.789062 2495.269531 1488.28125 2496.789062 1489.789062 C 2499.839844 1491.300781 2502.851562 1491.300781 2507.378906 1488.28125 C 2511.949219 1483.730469 2511.949219 1483.730469 2507.378906 1489.789062 Z M 2499.839844 2050.28125 C 2502.851562 2053.328125 2501.320312 2057.859375 2499.839844 2057.859375 C 2496.789062 2060.890625 2495.269531 2057.859375 2495.269531 2053.328125 C 2495.269531 2044.230469 2496.789062 2042.71875 2499.839844 2050.28125 Z M 2498.308594 1870.03125 C 2499.839844 1876.078125 2498.308594 1880.628906 2496.789062 1880.628906 C 2496.789062 1880.628906 2495.269531 1879.109375 2495.269531 1877.589844 C 2493.75 1877.589844 2493.75 1871.539062 2493.75 1866.988281 C 2492.261719 1862.449219 2492.261719 1857.898438 2493.75 1857.898438 C 2496.789062 1857.898438 2498.308594 1863.960938 2498.308594 1870.03125 Z M 2493.75 2033.621094 C 2495.269531 2035.148438 2495.269531 2038.171875 2493.75 2039.699219 C 2492.261719 2041.199219 2492.261719 2038.171875 2492.261719 2035.148438 C 2492.261719 2030.589844 2492.261719 2029.089844 2493.75 2033.621094 Z M 2496.789062 1414.039062 C 2493.75 1421.621094 2486.199219 1423.140625 2489.21875 1415.558594 C 2490.738281 1412.539062 2492.261719 1411.019531 2493.75 1409.511719 C 2496.789062 1407.988281 2498.308594 1411.019531 2496.789062 1414.039062 Z M 2490.738281 2019.988281 C 2489.21875 2018.488281 2487.691406 2013.929688 2487.691406 2010.910156 C 2487.691406 2006.359375 2489.21875 2006.359375 2492.261719 2009.378906 C 2493.75 2012.410156 2495.269531 2015.460938 2493.75 2018.488281 C 2493.75 2021.511719 2492.261719 2021.511719 2490.738281 2019.988281 Z M 2477.101562 1412.539062 C 2480.109375 1415.558594 2484.679688 1417.070312 2484.679688 1418.589844 C 2484.679688 1420.101562 2480.109375 1420.101562 2477.101562 1420.101562 C 2471.050781 1420.101562 2468.011719 1418.589844 2468.011719 1414.039062 C 2468.011719 1409.511719 2471.050781 1409.511719 2477.101562 1412.539062 Z M 2480.109375 1501.910156 C 2484.679688 1504.941406 2483.160156 1506.460938 2475.578125 1507.960938 C 2460.429688 1514.019531 2457.410156 1510.988281 2464.988281 1504.941406 C 2472.539062 1498.878906 2475.578125 1498.878906 2480.109375 1501.910156 Z M 2458.898438 1873.050781 C 2460.429688 1877.589844 2460.429688 1882.140625 2457.410156 1883.660156 C 2455.890625 1885.171875 2454.371094 1880.628906 2454.371094 1876.078125 C 2454.371094 1863.960938 2455.890625 1862.449219 2458.898438 1873.050781 Z M 2457.410156 1848.820312 C 2460.429688 1850.328125 2460.429688 1851.839844 2460.429688 1853.351562 C 2460.429688 1854.871094 2460.429688 1854.871094 2457.410156 1854.871094 C 2455.890625 1854.871094 2454.371094 1851.839844 2454.371094 1850.328125 C 2454.371094 1848.820312 2455.890625 1847.300781 2457.410156 1848.820312 Z M 2454.371094 1644.308594 C 2451.359375 1644.308594 2451.359375 1651.890625 2454.371094 1659.449219 C 2454.371094 1664 2457.410156 1659.449219 2457.410156 1653.390625 C 2457.410156 1648.839844 2455.890625 1644.308594 2454.371094 1644.308594 Z M 2464.988281 1701.871094 C 2463.46875 1692.789062 2460.429688 1685.210938 2457.410156 1683.691406 C 2452.851562 1680.660156 2452.851562 1679.160156 2457.410156 1679.160156 C 2460.429688 1679.160156 2460.429688 1676.128906 2460.429688 1671.578125 C 2460.429688 1664 2454.371094 1660.96875 2454.371094 1668.550781 C 2454.371094 1671.578125 2452.851562 1677.628906 2451.359375 1683.691406 C 2448.320312 1689.761719 2449.839844 1691.261719 2452.851562 1689.761719 C 2455.890625 1688.238281 2457.410156 1688.238281 2454.371094 1692.789062 C 2454.371094 1695.820312 2454.371094 1700.359375 2457.410156 1703.390625 C 2460.429688 1706.421875 2460.429688 1712.480469 2460.429688 1714 C 2458.898438 1715.5 2460.429688 1717.03125 2461.949219 1717.03125 C 2466.480469 1717.03125 2466.480469 1714 2464.988281 1701.871094 Z M 2454.371094 1641.28125 C 2455.890625 1641.28125 2455.890625 1638.261719 2454.371094 1633.710938 C 2454.371094 1629.148438 2451.359375 1626.128906 2449.839844 1626.128906 C 2448.320312 1626.128906 2448.320312 1629.148438 2448.320312 1633.710938 C 2449.839844 1638.261719 2451.359375 1641.28125 2454.371094 1641.28125 Z M 2449.839844 1621.578125 C 2451.359375 1621.578125 2454.371094 1621.578125 2454.371094 1618.550781 C 2454.371094 1617.050781 2452.851562 1614 2451.359375 1614 C 2451.359375 1614 2448.320312 1617.050781 2448.320312 1618.550781 C 2446.789062 1621.578125 2446.789062 1621.578125 2449.839844 1621.578125 Z M 2451.359375 1842.75 C 2448.320312 1842.75 2446.789062 1841.238281 2446.789062 1836.691406 C 2446.789062 1835.179688 2448.320312 1832.160156 2448.320312 1832.160156 C 2451.359375 1832.160156 2454.371094 1835.179688 2454.371094 1836.691406 C 2457.410156 1841.238281 2454.371094 1842.75 2451.359375 1842.75 Z M 2446.789062 1610.96875 C 2448.320312 1610.96875 2449.839844 1606.441406 2449.839844 1598.859375 C 2449.839844 1594.308594 2448.320312 1588.261719 2446.789062 1588.261719 C 2445.269531 1588.261719 2443.78125 1594.308594 2443.78125 1598.859375 C 2443.78125 1606.441406 2445.269531 1610.96875 2446.789062 1610.96875 Z M 2442.261719 1414.039062 C 2442.261719 1418.589844 2443.78125 1421.621094 2443.78125 1418.589844 C 2446.789062 1418.589844 2446.789062 1414.039062 2445.269531 1412.539062 C 2443.78125 1407.988281 2442.261719 1409.511719 2442.261719 1414.039062 Z M 2443.78125 1745.800781 C 2443.78125 1739.738281 2440.738281 1736.710938 2437.691406 1736.710938 C 2436.199219 1736.710938 2436.199219 1741.261719 2439.210938 1745.800781 C 2443.78125 1756.398438 2448.320312 1756.398438 2443.78125 1745.800781 Z M 2434.691406 1564.019531 C 2440.738281 1574.621094 2445.269531 1574.621094 2443.78125 1564.019531 C 2442.261719 1545.828125 2437.691406 1536.75 2434.691406 1542.808594 C 2433.160156 1545.828125 2433.160156 1550.378906 2434.691406 1551.890625 C 2437.691406 1556.441406 2437.691406 1557.960938 2434.691406 1557.960938 C 2431.640625 1557.960938 2431.640625 1560.988281 2434.691406 1564.019531 Z M 2427.109375 1977.589844 C 2427.109375 1980.609375 2427.109375 1986.671875 2427.109375 1991.21875 C 2425.578125 1994.25 2424.058594 1991.21875 2424.058594 1983.640625 C 2424.058594 1977.589844 2425.578125 1973.039062 2427.109375 1977.589844 Z M 2424.058594 1948.800781 C 2424.058594 1954.851562 2422.570312 1957.878906 2421.050781 1957.878906 C 2421.050781 1957.878906 2419.53125 1954.851562 2418 1948.800781 C 2418 1945.769531 2418 1941.21875 2419.53125 1941.21875 C 2421.050781 1941.21875 2424.058594 1945.769531 2424.058594 1948.800781 Z M 2413.46875 1883.660156 C 2413.46875 1885.171875 2415 1888.199219 2415 1891.21875 C 2415 1894.269531 2413.46875 1895.769531 2413.46875 1895.769531 C 2410.429688 1895.769531 2410.429688 1892.738281 2410.429688 1889.710938 C 2410.429688 1885.171875 2410.429688 1882.140625 2413.46875 1883.660156 Z M 2427.109375 1907.898438 C 2427.109375 1909.410156 2424.058594 1910.929688 2421.050781 1909.410156 C 2416.519531 1907.898438 2415 1909.410156 2416.519531 1910.929688 C 2418 1913.949219 2418 1915.460938 2413.46875 1915.460938 C 2407.421875 1915.460938 2407.421875 1915.460938 2413.46875 1907.898438 C 2421.050781 1901.828125 2427.109375 1901.828125 2427.109375 1907.898438 Z M 2418 1880.628906 C 2418 1880.628906 2415 1879.109375 2410.429688 1877.589844 C 2405.898438 1876.078125 2404.371094 1874.558594 2407.421875 1870.03125 C 2410.429688 1866.988281 2411.949219 1865.480469 2411.949219 1868.511719 C 2411.949219 1871.539062 2413.46875 1870.03125 2415 1865.480469 C 2418 1862.449219 2419.53125 1862.449219 2419.53125 1871.539062 C 2419.53125 1876.078125 2418 1880.628906 2418 1880.628906 Z M 2399.839844 1845.789062 C 2399.839844 1836.691406 2395.308594 1835.179688 2393.789062 1844.269531 C 2393.789062 1847.300781 2395.308594 1850.328125 2396.800781 1850.328125 C 2398.320312 1850.328125 2399.839844 1848.820312 2399.839844 1845.789062 Z M 2393.789062 1679.160156 C 2393.789062 1682.179688 2395.308594 1683.691406 2396.800781 1683.691406 C 2398.320312 1683.691406 2399.839844 1682.179688 2399.839844 1679.160156 C 2399.839844 1677.628906 2398.320312 1676.128906 2396.800781 1676.128906 C 2395.308594 1676.128906 2393.789062 1677.628906 2393.789062 1679.160156 Z M 2398.320312 1954.851562 C 2395.308594 1945.769531 2389.25 1954.851562 2392.261719 1965.460938 C 2393.789062 1973.039062 2395.308594 1973.039062 2396.800781 1968.480469 C 2399.839844 1963.941406 2399.839844 1957.878906 2398.320312 1954.851562 Z M 2389.25 1812.460938 C 2389.25 1815.480469 2390.738281 1820.03125 2393.789062 1820.03125 C 2395.308594 1820.03125 2395.308594 1818.511719 2395.308594 1815.480469 C 2393.789062 1806.398438 2389.25 1803.371094 2389.25 1812.460938 Z M 2392.261719 1941.21875 C 2387.730469 1945.769531 2387.730469 1945.769531 2393.789062 1944.25 C 2396.800781 1942.738281 2399.839844 1941.21875 2398.320312 1939.699219 C 2396.800781 1938.191406 2395.308594 1939.699219 2392.261719 1941.21875 Z M 2380.148438 1745.800781 C 2380.148438 1748.839844 2380.148438 1751.871094 2381.671875 1751.871094 C 2383.160156 1751.871094 2384.679688 1750.351562 2384.679688 1747.320312 C 2384.679688 1742.769531 2383.160156 1739.738281 2381.671875 1739.738281 C 2380.148438 1738.230469 2380.148438 1739.738281 2380.148438 1745.800781 Z M 2381.671875 1915.460938 C 2380.148438 1915.460938 2377.109375 1916.980469 2377.109375 1918.5 C 2377.109375 1921.53125 2378.628906 1923.039062 2380.148438 1923.039062 C 2380.148438 1923.039062 2381.671875 1921.53125 2383.160156 1918.5 C 2384.679688 1916.980469 2383.160156 1915.460938 2381.671875 1915.460938 Z M 2355.898438 2083.621094 C 2354.410156 2079.070312 2352.890625 2074.539062 2351.359375 2074.539062 C 2351.359375 2074.539062 2351.359375 2079.070312 2351.359375 2083.621094 C 2351.359375 2088.171875 2352.890625 2091.199219 2354.410156 2091.199219 C 2357.421875 2091.199219 2357.421875 2088.171875 2355.898438 2083.621094 Z M 2343.789062 1304.980469 C 2343.789062 1298.929688 2340.75 1294.378906 2339.261719 1292.851562 C 2337.730469 1291.351562 2336.210938 1295.878906 2336.210938 1301.949219 C 2337.730469 1315.589844 2343.789062 1318.609375 2343.789062 1304.980469 Z M 2337.730469 2021.511719 C 2339.261719 2024.539062 2339.261719 2027.570312 2337.730469 2029.089844 C 2336.210938 2030.589844 2334.691406 2027.570312 2334.691406 2024.539062 C 2334.691406 2018.488281 2336.210938 2018.488281 2337.730469 2021.511719 Z M 2324.101562 1895.769531 C 2324.101562 1894.269531 2322.570312 1892.738281 2321.058594 1892.738281 C 2318.039062 1892.738281 2318.039062 1894.269531 2318.039062 1895.769531 C 2319.570312 1898.800781 2321.058594 1900.320312 2322.570312 1900.320312 C 2324.101562 1900.320312 2324.101562 1898.800781 2324.101562 1895.769531 Z M 2311.988281 1168.628906 C 2310.46875 1164.089844 2308.941406 1165.601562 2308.941406 1170.160156 C 2308.941406 1174.691406 2310.46875 1177.71875 2310.46875 1176.210938 C 2311.988281 1174.691406 2311.988281 1170.160156 2311.988281 1168.628906 Z M 2187.769531 1510.988281 C 2180.191406 1501.910156 2171.089844 1501.910156 2175.628906 1510.988281 C 2175.628906 1515.539062 2177.148438 1515.539062 2178.671875 1512.511719 C 2178.671875 1507.960938 2181.679688 1507.960938 2186.25 1512.511719 C 2192.300781 1517.050781 2192.300781 1517.050781 2187.769531 1510.988281 Z M 2172.609375 1567.039062 C 2168.050781 1568.570312 2165.039062 1571.601562 2165.039062 1573.101562 C 2165.039062 1577.648438 2177.148438 1574.621094 2178.671875 1570.070312 C 2178.671875 1567.039062 2177.148438 1567.039062 2172.609375 1567.039062 Z M 2083.238281 1339.820312 C 2084.730469 1339.820312 2086.25 1342.851562 2084.730469 1345.878906 C 2084.730469 1348.910156 2084.730469 1351.929688 2087.78125 1351.929688 C 2090.820312 1351.929688 2092.308594 1350.429688 2090.820312 1348.910156 C 2089.300781 1347.398438 2089.300781 1344.359375 2092.308594 1341.328125 C 2096.871094 1336.789062 2090.820312 1332.25 2084.730469 1336.789062 C 2080.199219 1339.820312 2080.199219 1339.820312 2083.238281 1339.820312 Z M 2207.460938 1348.910156 C 2205.941406 1335.269531 2196.839844 1295.878906 2190.78125 1259.53125 C 2184.730469 1226.191406 2178.671875 1195.898438 2177.148438 1191.371094 C 2175.628906 1185.289062 2168.050781 1200.449219 2143.828125 1253.480469 C 2137.769531 1267.109375 2124.140625 1294.378906 2113.519531 1315.589844 C 2104.449219 1336.789062 2095.351562 1354.960938 2095.351562 1356.480469 C 2095.351562 1357.988281 2089.300781 1370.121094 2084.730469 1383.75 C 2077.179688 1397.378906 2072.621094 1409.511719 2072.621094 1411.019531 C 2072.621094 1412.539062 2077.179688 1412.539062 2083.238281 1411.019531 C 2089.300781 1409.511719 2096.871094 1407.988281 2099.890625 1406.46875 C 2158.980469 1392.828125 2208.980469 1380.71875 2211.988281 1377.691406 C 2211.988281 1376.171875 2210.46875 1364.058594 2207.460938 1348.910156 Z M 2071.101562 1376.171875 C 2074.140625 1374.671875 2077.179688 1373.148438 2077.179688 1371.621094 C 2077.179688 1365.570312 2068.089844 1368.589844 2066.570312 1374.671875 C 2065.039062 1377.691406 2066.570312 1377.691406 2071.101562 1376.171875 Z M 2066.570312 1382.230469 C 2066.570312 1382.230469 2063.550781 1382.230469 2060.511719 1385.269531 C 2055.96875 1389.808594 2055.96875 1389.808594 2062.03125 1388.300781 C 2066.570312 1386.78125 2068.089844 1383.75 2066.570312 1382.230469 Z M 2055.96875 1394.351562 C 2049.890625 1395.871094 2048.398438 1407.988281 2052.929688 1407.988281 C 2054.460938 1407.988281 2057.460938 1404.960938 2058.988281 1401.929688 C 2058.988281 1395.871094 2058.988281 1392.828125 2055.96875 1394.351562 Z M 2049.890625 1309.511719 L 2052.929688 1300.429688 L 2043.828125 1311.039062 C 2039.300781 1318.609375 2034.769531 1326.191406 2034.769531 1332.25 C 2034.769531 1335.269531 2033.25 1341.328125 2030.199219 1342.851562 C 2025.671875 1345.878906 2025.671875 1347.398438 2030.199219 1347.398438 C 2033.25 1347.398438 2036.25 1344.359375 2036.25 1341.328125 C 2037.78125 1338.300781 2040.820312 1332.25 2042.339844 1327.699219 C 2045.351562 1323.140625 2048.398438 1315.589844 2049.890625 1309.511719 Z M 2022.621094 1361.03125 L 2016.558594 1371.621094 C 2008.988281 1379.199219 2008.988281 1380.71875 2015.078125 1385.269531 C 2018.089844 1388.300781 2021.128906 1389.808594 2021.128906 1389.808594 C 2021.128906 1389.808594 2022.621094 1383.75 2022.621094 1374.671875 Z M 2016.558594 1404.960938 C 2016.558594 1403.441406 2013.558594 1401.929688 2012.03125 1398.898438 C 2010.511719 1398.898438 2007.5 1398.898438 2007.5 1401.929688 C 2007.5 1403.441406 2010.511719 1404.960938 2012.03125 1404.960938 C 2013.558594 1404.960938 2016.558594 1404.960938 2016.558594 1404.960938 Z M 2007.5 1414.039062 C 2005.980469 1415.558594 2004.460938 1415.558594 2004.460938 1412.539062 C 2004.460938 1404.960938 1992.351562 1421.621094 1992.351562 1426.171875 C 1992.351562 1435.25 2010.511719 1426.171875 2010.511719 1418.589844 C 2012.03125 1414.039062 2010.511719 1412.539062 2007.5 1414.039062 Z M 1942.351562 1670.050781 C 1942.351562 1664 1940.820312 1662.46875 1936.289062 1662.46875 C 1933.25 1664 1931.761719 1668.550781 1931.761719 1673.078125 C 1931.761719 1676.128906 1933.25 1679.160156 1936.289062 1679.160156 C 1940.820312 1679.160156 1942.351562 1676.128906 1942.351562 1670.050781 Z M 1930.238281 1683.691406 C 1927.191406 1685.210938 1925.671875 1688.238281 1925.671875 1689.761719 C 1925.671875 1692.789062 1924.179688 1695.820312 1921.140625 1697.320312 C 1918.128906 1700.359375 1916.609375 1701.871094 1918.128906 1701.871094 C 1921.140625 1701.871094 1924.179688 1700.359375 1925.671875 1698.839844 C 1933.25 1695.820312 1936.289062 1682.179688 1930.238281 1683.691406 Z M 1925.671875 1709.449219 C 1924.179688 1707.921875 1922.660156 1706.421875 1921.140625 1706.421875 C 1918.128906 1706.421875 1916.609375 1707.921875 1916.609375 1709.449219 C 1916.609375 1712.480469 1919.621094 1714 1922.660156 1714 C 1925.671875 1714 1927.191406 1712.480469 1925.671875 1709.449219 Z M 1927.191406 1733.691406 C 1927.191406 1736.710938 1916.609375 1765.5 1913.558594 1767.011719 C 1910.550781 1767.011719 1907.5 1774.578125 1905.980469 1780.640625 C 1902.96875 1789.738281 1893.871094 1798.820312 1893.871094 1789.738281 C 1893.871094 1788.21875 1895.390625 1785.191406 1898.410156 1782.160156 C 1901.449219 1779.128906 1902.96875 1773.078125 1902.96875 1767.011719 C 1902.96875 1751.871094 1919.621094 1727.628906 1927.191406 1733.691406 Z M 1884.769531 1732.160156 C 1880.238281 1732.160156 1880.238281 1733.691406 1880.238281 1736.710938 C 1881.761719 1739.738281 1883.289062 1739.738281 1884.769531 1739.738281 C 1884.769531 1739.738281 1887.808594 1739.738281 1887.808594 1736.710938 C 1889.339844 1733.691406 1887.808594 1732.160156 1884.769531 1732.160156 Z M 1887.808594 1751.871094 C 1884.769531 1747.320312 1874.179688 1751.871094 1874.179688 1757.921875 C 1874.179688 1762.46875 1877.199219 1762.46875 1883.289062 1759.429688 C 1886.289062 1756.398438 1889.339844 1753.371094 1887.808594 1751.871094 Z M 1848.441406 1797.308594 C 1848.441406 1795.789062 1849.929688 1792.769531 1851.449219 1792.769531 C 1854.5 1792.769531 1855.988281 1795.789062 1855.988281 1797.308594 C 1855.988281 1800.339844 1854.5 1801.851562 1851.449219 1801.851562 C 1849.929688 1801.851562 1848.441406 1800.339844 1848.441406 1797.308594 Z M 1843.878906 1833.671875 C 1843.878906 1830.640625 1843.878906 1827.609375 1842.351562 1827.609375 C 1840.859375 1827.609375 1840.859375 1830.640625 1837.820312 1833.671875 C 1837.820312 1836.691406 1837.820312 1839.71875 1840.859375 1839.71875 C 1842.351562 1839.71875 1843.878906 1836.691406 1843.878906 1833.671875 Z M 1855.988281 1835.179688 C 1848.441406 1847.300781 1843.878906 1857.898438 1840.859375 1868.511719 C 1839.339844 1877.589844 1837.820312 1879.109375 1834.808594 1873.050781 C 1833.28125 1871.539062 1833.28125 1865.480469 1834.808594 1857.898438 C 1836.300781 1851.839844 1834.808594 1847.300781 1833.28125 1847.300781 C 1831.761719 1848.820312 1830.238281 1845.789062 1830.238281 1841.238281 C 1830.238281 1836.691406 1831.761719 1832.160156 1833.28125 1832.160156 C 1834.808594 1832.160156 1836.300781 1829.121094 1836.300781 1826.089844 C 1836.300781 1821.550781 1837.820312 1820.03125 1843.878906 1821.550781 C 1848.441406 1823.058594 1851.449219 1821.550781 1851.449219 1820.03125 C 1851.449219 1818.511719 1854.5 1815.480469 1860.550781 1815.480469 C 1866.601562 1813.96875 1866.601562 1818.511719 1855.988281 1835.179688 Z M 1830.238281 1879.109375 C 1833.28125 1880.628906 1836.300781 1882.140625 1836.300781 1882.140625 C 1836.300781 1883.660156 1833.28125 1885.171875 1830.238281 1886.691406 C 1827.230469 1888.199219 1825.710938 1886.691406 1825.710938 1882.140625 C 1825.710938 1879.109375 1827.230469 1879.109375 1830.238281 1879.109375 Z M 1830.238281 1973.039062 C 1830.238281 1974.539062 1827.230469 1976.058594 1824.191406 1976.058594 C 1822.671875 1976.058594 1822.671875 1974.539062 1824.191406 1973.039062 C 1824.191406 1971.511719 1827.230469 1968.480469 1828.71875 1968.480469 C 1831.761719 1968.480469 1831.761719 1971.511719 1830.238281 1973.039062 Z M 1833.28125 1954.851562 C 1833.28125 1962.429688 1828.71875 1962.429688 1824.191406 1959.398438 C 1819.648438 1954.851562 1821.179688 1948.800781 1827.230469 1948.800781 C 1830.238281 1948.800781 1833.28125 1951.820312 1833.28125 1954.851562 Z M 1818.128906 1865.480469 C 1818.128906 1863.960938 1821.179688 1860.929688 1824.191406 1857.898438 C 1828.71875 1854.871094 1828.71875 1854.871094 1827.230469 1859.421875 C 1824.191406 1865.480469 1818.128906 1868.511719 1818.128906 1865.480469 Z M 1821.179688 1742.769531 C 1818.128906 1741.261719 1815.089844 1739.738281 1813.601562 1742.769531 C 1810.550781 1742.769531 1810.550781 1744.289062 1815.089844 1744.289062 C 1819.648438 1744.289062 1821.179688 1742.769531 1821.179688 1742.769531 Z M 1812.070312 1910.929688 C 1810.550781 1909.410156 1810.550781 1907.898438 1810.550781 1907.898438 C 1821.179688 1904.859375 1825.710938 1906.378906 1825.710938 1910.929688 C 1825.710938 1915.460938 1815.089844 1916.980469 1812.070312 1910.929688 Z M 1813.601562 1785.191406 C 1813.601562 1783.679688 1813.601562 1782.160156 1812.070312 1782.160156 C 1810.550781 1782.160156 1809.03125 1783.679688 1807.539062 1785.191406 C 1807.539062 1788.21875 1807.539062 1789.738281 1810.550781 1789.738281 C 1812.070312 1789.738281 1813.601562 1788.21875 1813.601562 1785.191406 Z M 1815.089844 1876.078125 C 1813.601562 1874.558594 1815.089844 1873.050781 1816.609375 1876.078125 C 1821.179688 1877.589844 1819.648438 1882.140625 1810.550781 1895.769531 C 1806.019531 1901.828125 1806.019531 1900.320312 1807.539062 1892.738281 C 1810.550781 1888.199219 1813.601562 1882.140625 1813.601562 1882.140625 C 1815.089844 1880.628906 1816.609375 1879.109375 1815.089844 1876.078125 Z M 1807.539062 1771.558594 C 1809.03125 1762.46875 1809.03125 1762.46875 1804.5 1768.53125 C 1801.449219 1773.078125 1798.441406 1777.609375 1799.960938 1779.128906 C 1804.5 1783.679688 1804.5 1783.679688 1807.539062 1771.558594 Z M 1793.878906 1932.140625 C 1790.859375 1929.109375 1795.398438 1915.460938 1799.960938 1913.949219 C 1802.980469 1913.949219 1804.5 1915.460938 1802.980469 1921.53125 C 1801.449219 1932.140625 1798.441406 1936.671875 1793.878906 1932.140625 Z M 1801.449219 1789.738281 C 1801.449219 1788.21875 1799.960938 1785.191406 1798.441406 1785.191406 C 1796.921875 1785.191406 1793.878906 1788.21875 1792.390625 1789.738281 C 1792.390625 1792.769531 1792.390625 1792.769531 1796.921875 1792.769531 C 1798.441406 1792.769531 1801.449219 1792.769531 1801.449219 1789.738281 Z M 1810.550781 1944.25 C 1816.609375 1954.851562 1816.609375 1956.378906 1807.539062 1963.941406 L 1798.441406 1971.511719 L 1798.441406 1963.941406 C 1796.921875 1957.878906 1793.878906 1954.851562 1789.339844 1954.851562 C 1777.230469 1954.851562 1778.75 1944.25 1790.859375 1944.25 C 1795.398438 1942.738281 1801.449219 1941.21875 1801.449219 1938.191406 C 1804.5 1935.160156 1807.539062 1938.191406 1810.550781 1944.25 Z M 1792.390625 1797.308594 C 1790.859375 1797.308594 1787.820312 1798.820312 1787.820312 1801.851562 C 1787.820312 1803.371094 1781.769531 1815.480469 1775.710938 1829.121094 C 1762.078125 1857.898438 1762.078125 1857.898438 1771.171875 1857.898438 C 1778.75 1857.898438 1778.75 1857.898438 1777.230469 1848.820312 C 1775.710938 1842.75 1777.230469 1836.691406 1781.769531 1833.671875 C 1786.328125 1830.640625 1787.820312 1829.121094 1784.808594 1827.609375 C 1783.289062 1827.609375 1783.289062 1826.089844 1786.328125 1824.578125 C 1787.820312 1823.058594 1790.859375 1818.511719 1792.390625 1815.480469 C 1792.390625 1810.949219 1795.398438 1804.878906 1795.398438 1801.851562 C 1798.441406 1798.820312 1796.921875 1797.308594 1792.390625 1797.308594 Z M 1760.558594 1832.160156 C 1760.558594 1829.121094 1759.03125 1827.609375 1759.03125 1827.609375 C 1757.539062 1827.609375 1756.019531 1829.121094 1754.5 1832.160156 C 1754.5 1835.179688 1754.5 1835.179688 1757.539062 1835.179688 C 1759.03125 1835.179688 1760.558594 1835.179688 1760.558594 1832.160156 Z M 2486.199219 1830.640625 C 2484.679688 1823.058594 2483.160156 1810.949219 2483.160156 1801.851562 C 2480.109375 1791.25 2480.109375 1779.128906 2478.621094 1773.078125 C 2477.101562 1767.011719 2477.101562 1757.921875 2474.058594 1754.898438 C 2474.058594 1751.871094 2471.050781 1745.800781 2471.050781 1742.769531 C 2471.050781 1739.738281 2468.011719 1735.210938 2468.011719 1733.691406 C 2466.480469 1733.691406 2466.480469 1729.140625 2468.011719 1726.109375 C 2468.011719 1723.078125 2466.480469 1720.050781 2463.46875 1720.050781 C 2460.429688 1720.050781 2458.898438 1723.078125 2460.429688 1732.160156 C 2466.480469 1750.351562 2468.011719 1770.03125 2463.46875 1770.03125 C 2460.429688 1770.03125 2460.429688 1773.078125 2463.46875 1774.578125 C 2468.011719 1777.609375 2468.011719 1782.160156 2466.480469 1791.25 C 2464.988281 1800.339844 2466.480469 1804.878906 2468.011719 1804.878906 C 2471.050781 1804.878906 2471.050781 1806.398438 2471.050781 1809.429688 C 2469.53125 1809.429688 2471.050781 1817 2472.539062 1826.089844 C 2474.058594 1833.671875 2474.058594 1838.210938 2472.539062 1836.691406 C 2468.011719 1835.179688 2468.011719 1838.210938 2472.539062 1847.300781 C 2477.101562 1857.898438 2480.109375 1877.589844 2475.578125 1879.109375 C 2472.539062 1882.140625 2474.058594 1882.140625 2477.101562 1885.171875 C 2481.640625 1888.199219 2484.679688 1938.191406 2480.109375 1938.191406 C 2477.101562 1938.191406 2477.101562 1938.191406 2477.101562 1935.160156 C 2475.578125 1935.160156 2474.058594 1927.589844 2474.058594 1921.53125 C 2472.539062 1915.460938 2471.050781 1901.828125 2471.050781 1892.738281 C 2471.050781 1882.140625 2468.011719 1873.050781 2466.480469 1871.539062 C 2463.46875 1868.511719 2463.46875 1862.449219 2463.46875 1859.421875 C 2464.988281 1854.871094 2463.46875 1850.328125 2460.429688 1848.820312 C 2458.898438 1847.300781 2458.898438 1845.789062 2460.429688 1839.71875 C 2464.988281 1832.160156 2464.988281 1832.160156 2460.429688 1835.179688 C 2457.410156 1836.691406 2457.410156 1835.179688 2458.898438 1829.121094 C 2460.429688 1823.058594 2460.429688 1818.511719 2457.410156 1818.511719 C 2455.890625 1817 2454.371094 1818.511719 2454.371094 1821.550781 C 2454.371094 1832.160156 2443.78125 1826.089844 2443.78125 1817 C 2442.261719 1812.460938 2443.78125 1809.429688 2448.320312 1809.429688 C 2451.359375 1809.429688 2454.371094 1804.878906 2454.371094 1795.789062 C 2454.371094 1788.21875 2451.359375 1782.160156 2449.839844 1782.160156 C 2446.789062 1782.160156 2443.78125 1789.738281 2446.789062 1801.851562 C 2446.789062 1804.878906 2443.78125 1803.371094 2440.738281 1798.820312 C 2436.199219 1792.769531 2434.691406 1786.710938 2434.691406 1783.679688 C 2434.691406 1779.128906 2433.160156 1773.078125 2430.148438 1767.011719 C 2422.570312 1754.898438 2418 1723.078125 2424.058594 1720.050781 C 2427.109375 1720.050781 2427.109375 1717.03125 2424.058594 1710.949219 C 2421.050781 1706.421875 2419.53125 1697.320312 2421.050781 1694.289062 C 2421.050781 1689.761719 2421.050781 1686.730469 2416.519531 1686.730469 C 2410.429688 1683.691406 2411.949219 1676.128906 2419.53125 1668.550781 C 2424.058594 1664 2424.058594 1664 2418 1667.03125 C 2413.46875 1667.03125 2411.949219 1665.519531 2410.429688 1659.449219 C 2407.421875 1654.921875 2407.421875 1647.339844 2407.421875 1644.308594 C 2408.941406 1642.789062 2407.421875 1636.730469 2407.421875 1633.710938 C 2405.898438 1630.679688 2401.359375 1614 2399.839844 1594.308594 C 2395.308594 1571.601562 2395.308594 1562.5 2396.800781 1557.960938 C 2401.359375 1554.941406 2399.839844 1551.890625 2395.308594 1547.359375 C 2392.261719 1544.328125 2389.25 1541.300781 2389.25 1541.300781 C 2389.25 1533.71875 2387.730469 1533.71875 2384.679688 1539.78125 C 2380.148438 1551.890625 2380.148438 1568.570312 2384.679688 1568.570312 C 2387.730469 1568.570312 2389.25 1574.621094 2387.730469 1585.230469 C 2387.730469 1594.308594 2389.25 1603.410156 2392.261719 1604.921875 C 2396.800781 1609.46875 2401.359375 1638.261719 2396.800781 1635.210938 C 2390.738281 1630.679688 2389.25 1641.28125 2395.308594 1647.339844 C 2396.800781 1650.371094 2399.839844 1653.390625 2399.839844 1656.421875 C 2399.839844 1657.941406 2399.839844 1662.46875 2401.359375 1667.03125 C 2405.898438 1686.730469 2407.421875 1698.839844 2404.371094 1695.820312 C 2401.359375 1695.820312 2399.839844 1697.320312 2399.839844 1701.871094 C 2399.839844 1706.421875 2401.359375 1709.449219 2404.371094 1709.449219 C 2405.898438 1709.449219 2405.898438 1714 2404.371094 1720.050781 C 2399.839844 1732.160156 2404.371094 1739.738281 2411.949219 1733.691406 C 2418 1732.160156 2416.519531 1747.320312 2410.429688 1751.871094 C 2407.421875 1756.398438 2405.898438 1760.949219 2407.421875 1770.03125 C 2410.429688 1776.101562 2410.429688 1782.160156 2407.421875 1782.160156 C 2405.898438 1782.160156 2405.898438 1785.191406 2407.421875 1789.738281 C 2407.421875 1794.269531 2410.429688 1797.308594 2413.46875 1797.308594 C 2416.519531 1797.308594 2419.53125 1798.820312 2419.53125 1801.851562 C 2419.53125 1803.371094 2418 1804.878906 2415 1803.371094 C 2413.46875 1801.851562 2411.949219 1803.371094 2411.949219 1804.878906 C 2411.949219 1806.398438 2415 1809.429688 2418 1810.949219 C 2424.058594 1812.460938 2424.058594 1812.460938 2418 1812.460938 C 2415 1812.460938 2413.46875 1815.480469 2413.46875 1817 C 2415 1820.03125 2415 1829.121094 2416.519531 1836.691406 C 2418 1848.820312 2418 1850.328125 2413.46875 1848.820312 C 2407.421875 1847.300781 2405.898438 1853.351562 2413.46875 1856.378906 C 2415 1857.898438 2413.46875 1857.898438 2407.421875 1857.898438 C 2396.800781 1854.871094 2396.800781 1854.871094 2396.800781 1879.109375 C 2398.320312 1892.738281 2399.839844 1903.351562 2401.359375 1901.828125 C 2402.878906 1901.828125 2404.371094 1904.859375 2404.371094 1910.929688 C 2404.371094 1918.5 2401.359375 1923.039062 2399.839844 1923.039062 C 2395.308594 1923.039062 2395.308594 1933.640625 2399.839844 1935.160156 C 2402.878906 1936.671875 2404.371094 1947.28125 2405.898438 1960.910156 C 2407.421875 1974.539062 2410.429688 1988.171875 2413.46875 1991.21875 C 2415 1994.25 2415 1995.75 2413.46875 1995.75 C 2410.429688 1995.75 2407.421875 1994.25 2404.371094 1991.21875 C 2401.359375 1986.671875 2399.839844 1983.640625 2399.839844 1977.589844 C 2399.839844 1976.058594 2398.320312 1977.589844 2396.800781 1979.089844 C 2392.261719 1983.640625 2396.800781 1995.75 2407.421875 2007.878906 C 2415 2015.460938 2418 2021.511719 2413.46875 2021.511719 C 2410.429688 2021.511719 2407.421875 2019.988281 2404.371094 2016.960938 C 2401.359375 2013.929688 2399.839844 2015.460938 2401.359375 2021.511719 C 2401.359375 2027.570312 2402.878906 2035.148438 2404.371094 2039.699219 C 2404.371094 2051.808594 2411.949219 2051.808594 2411.949219 2038.171875 C 2411.949219 2027.570312 2418 2027.570312 2421.050781 2038.171875 C 2425.578125 2051.808594 2421.050781 2062.410156 2413.46875 2059.378906 C 2410.429688 2057.859375 2407.421875 2057.859375 2407.421875 2060.890625 C 2407.421875 2062.410156 2411.949219 2063.929688 2415 2065.441406 C 2421.050781 2066.960938 2424.058594 2069.988281 2422.570312 2073.019531 C 2421.050781 2077.570312 2422.570312 2080.589844 2427.109375 2080.589844 C 2436.199219 2083.621094 2433.160156 2091.199219 2424.058594 2091.199219 C 2418 2091.199219 2415 2088.171875 2415 2082.101562 L 2415 2073.019531 L 2411.949219 2083.621094 C 2410.429688 2088.171875 2408.941406 2094.230469 2410.429688 2095.730469 C 2410.429688 2097.261719 2407.421875 2098.761719 2401.359375 2098.761719 C 2396.800781 2098.761719 2393.789062 2100.28125 2392.261719 2103.308594 C 2390.738281 2106.339844 2389.25 2106.339844 2386.210938 2103.308594 C 2383.160156 2098.761719 2381.671875 2098.761719 2380.148438 2103.308594 C 2378.628906 2109.359375 2365 2110.890625 2357.421875 2104.828125 C 2348.320312 2098.761719 2340.75 2066.960938 2348.320312 2069.988281 C 2351.359375 2071.488281 2354.410156 2069.988281 2352.890625 2065.441406 C 2348.320312 2041.199219 2345.308594 2036.648438 2343.789062 2038.171875 C 2340.75 2041.199219 2339.261719 2039.699219 2339.261719 2038.171875 C 2339.261719 2036.648438 2340.75 2033.621094 2343.789062 2032.121094 C 2345.308594 2030.589844 2345.308594 2029.089844 2345.308594 2027.570312 C 2345.308594 2026.058594 2343.789062 2015.460938 2340.75 2004.851562 C 2339.261719 1985.140625 2334.691406 1973.039062 2334.691406 1983.640625 C 2334.691406 1985.140625 2334.691406 1988.171875 2331.679688 1988.171875 C 2328.628906 1988.171875 2328.628906 1982.121094 2328.628906 1974.539062 C 2330.148438 1968.480469 2328.628906 1960.910156 2328.628906 1960.910156 C 2324.101562 1960.910156 2315 1915.460938 2318.039062 1912.429688 C 2319.570312 1910.929688 2318.039062 1907.898438 2316.519531 1904.859375 C 2315 1901.828125 2310.46875 1885.171875 2308.941406 1871.539062 C 2302.890625 1832.160156 2302.890625 1830.640625 2292.300781 1770.03125 C 2280.160156 1704.898438 2257.460938 1577.648438 2254.410156 1570.070312 C 2252.890625 1567.039062 2242.300781 1568.570312 2218.050781 1574.621094 C 2201.398438 1580.679688 2178.671875 1586.730469 2174.140625 1588.261719 C 2168.050781 1589.78125 2154.421875 1594.308594 2143.828125 1597.339844 C 2133.199219 1600.371094 2093.828125 1610.96875 2057.460938 1621.578125 C 1960.511719 1650.371094 1966.601562 1647.339844 1959.019531 1664 C 1954.460938 1673.078125 1951.449219 1683.691406 1951.449219 1685.210938 C 1951.449219 1691.261719 1934.769531 1720.050781 1930.238281 1720.050781 C 1928.710938 1718.53125 1928.710938 1720.050781 1930.238281 1723.078125 C 1933.25 1730.660156 1927.191406 1730.660156 1922.660156 1723.078125 C 1918.128906 1717.03125 1907.5 1720.050781 1910.550781 1726.109375 C 1912.039062 1727.628906 1912.039062 1729.140625 1910.550781 1729.140625 C 1905.980469 1729.140625 1899.929688 1742.769531 1899.929688 1748.839844 C 1901.449219 1750.351562 1899.929688 1751.871094 1896.921875 1751.871094 C 1893.871094 1751.871094 1889.339844 1765.5 1889.339844 1771.558594 C 1890.828125 1773.078125 1887.808594 1774.578125 1884.769531 1774.578125 C 1883.289062 1774.578125 1883.289062 1777.609375 1883.289062 1780.640625 C 1884.769531 1783.679688 1883.289062 1786.710938 1880.238281 1788.21875 C 1877.199219 1788.21875 1874.179688 1791.25 1877.199219 1792.769531 C 1877.199219 1795.789062 1877.199219 1797.308594 1874.179688 1797.308594 C 1871.140625 1797.308594 1871.140625 1798.820312 1872.660156 1801.851562 C 1875.710938 1806.398438 1868.128906 1810.949219 1863.558594 1807.910156 C 1860.550781 1806.398438 1862.070312 1798.820312 1865.078125 1789.738281 C 1871.140625 1771.558594 1871.140625 1762.46875 1865.078125 1777.609375 C 1860.550781 1789.738281 1851.449219 1794.269531 1851.449219 1785.191406 C 1851.449219 1783.679688 1854.5 1782.160156 1855.988281 1782.160156 C 1857.511719 1782.160156 1859.03125 1780.640625 1857.511719 1779.128906 C 1855.988281 1776.101562 1857.511719 1771.558594 1860.550781 1767.011719 C 1865.078125 1762.46875 1871.140625 1747.320312 1872.660156 1733.691406 C 1872.660156 1732.160156 1877.199219 1723.078125 1881.761719 1712.480469 C 1886.289062 1701.871094 1890.828125 1691.261719 1890.828125 1688.238281 C 1890.828125 1686.730469 1892.351562 1683.691406 1893.871094 1683.691406 C 1895.390625 1683.691406 1896.921875 1680.660156 1896.921875 1677.628906 C 1896.921875 1670.050781 1893.871094 1670.050781 1881.761719 1676.128906 C 1877.199219 1679.160156 1872.660156 1683.691406 1874.179688 1686.730469 C 1874.179688 1688.238281 1871.140625 1689.761719 1866.601562 1689.761719 C 1860.550781 1689.761719 1860.550781 1689.761719 1862.070312 1683.691406 C 1863.558594 1679.160156 1863.558594 1677.628906 1860.550781 1682.179688 C 1855.988281 1685.210938 1857.511719 1688.238281 1860.550781 1697.320312 C 1866.601562 1709.449219 1866.601562 1714 1855.988281 1714 C 1851.449219 1714 1848.441406 1717.03125 1848.441406 1723.078125 C 1848.441406 1729.140625 1846.921875 1735.210938 1843.878906 1736.710938 C 1840.859375 1736.710938 1821.179688 1774.578125 1819.648438 1785.191406 C 1819.648438 1788.21875 1815.089844 1792.769531 1810.550781 1795.789062 C 1804.5 1798.820312 1801.449219 1801.851562 1804.5 1801.851562 C 1806.019531 1801.851562 1804.5 1803.371094 1801.449219 1804.878906 C 1798.441406 1807.910156 1798.441406 1809.429688 1806.019531 1809.429688 C 1815.089844 1809.429688 1815.089844 1809.429688 1809.03125 1813.96875 C 1804.5 1815.480469 1799.960938 1815.480469 1798.441406 1815.480469 C 1796.921875 1813.96875 1795.398438 1817 1796.921875 1823.058594 C 1798.441406 1829.121094 1798.441406 1836.691406 1795.398438 1836.691406 C 1792.390625 1839.71875 1792.390625 1842.75 1792.390625 1844.269531 C 1793.878906 1845.789062 1792.390625 1847.300781 1789.339844 1847.300781 C 1784.808594 1847.300781 1783.289062 1850.328125 1783.289062 1859.421875 C 1783.289062 1866.988281 1781.769531 1870.03125 1780.238281 1868.511719 C 1777.230469 1863.960938 1775.710938 1865.480469 1772.699219 1871.539062 C 1768.128906 1876.078125 1768.128906 1877.589844 1774.191406 1877.589844 C 1778.75 1877.589844 1778.75 1879.109375 1777.230469 1879.109375 C 1774.191406 1882.140625 1771.171875 1886.691406 1769.648438 1891.21875 C 1768.128906 1897.289062 1765.121094 1898.800781 1763.601562 1898.800781 C 1760.558594 1895.769531 1760.558594 1897.289062 1762.078125 1900.320312 C 1765.121094 1906.378906 1757.539062 1918.5 1751.488281 1918.5 C 1745.398438 1918.5 1745.398438 1918.5 1751.488281 1909.410156 C 1754.5 1904.859375 1757.539062 1898.800781 1754.5 1898.800781 C 1754.5 1895.769531 1754.5 1892.738281 1757.539062 1891.21875 C 1759.03125 1888.199219 1757.539062 1885.171875 1754.5 1882.140625 C 1749.960938 1877.589844 1748.449219 1877.589844 1748.449219 1882.140625 C 1748.449219 1892.738281 1745.398438 1901.828125 1742.390625 1904.859375 C 1740.871094 1904.859375 1739.339844 1909.410156 1739.339844 1913.949219 C 1739.339844 1916.980469 1736.328125 1921.53125 1734.808594 1923.039062 C 1730.28125 1924.558594 1728.761719 1921.53125 1731.769531 1916.980469 C 1733.289062 1912.429688 1731.769531 1910.929688 1728.761719 1913.949219 C 1724.21875 1913.949219 1721.179688 1915.460938 1719.660156 1915.460938 C 1718.128906 1915.460938 1719.660156 1916.980469 1721.179688 1918.5 C 1721.179688 1921.53125 1721.179688 1924.558594 1716.640625 1926.070312 C 1709.070312 1929.109375 1709.070312 1935.160156 1716.640625 1935.160156 C 1719.660156 1935.160156 1722.699219 1932.140625 1722.699219 1929.109375 C 1722.699219 1926.070312 1724.21875 1923.039062 1727.238281 1924.558594 C 1730.28125 1924.558594 1731.769531 1929.109375 1731.769531 1932.140625 C 1730.28125 1936.671875 1731.769531 1939.699219 1737.851562 1939.699219 C 1749.960938 1941.21875 1751.488281 1941.21875 1759.03125 1947.28125 C 1763.601562 1951.820312 1765.121094 1954.851562 1762.078125 1957.878906 C 1757.539062 1962.429688 1721.179688 1965.460938 1684.808594 1962.429688 C 1662.078125 1960.910156 1656.019531 1959.398438 1654.539062 1953.328125 C 1653.019531 1948.800781 1651.488281 1945.769531 1648.449219 1945.769531 C 1645.441406 1945.769531 1645.441406 1935.160156 1648.449219 1924.558594 C 1649.96875 1921.53125 1651.488281 1920.011719 1653.019531 1923.039062 C 1656.019531 1926.070312 1659.070312 1923.039062 1660.589844 1915.460938 C 1665.128906 1904.859375 1665.128906 1904.859375 1659.070312 1909.410156 C 1653.019531 1913.949219 1653.019531 1913.949219 1656.019531 1904.859375 C 1659.070312 1900.320312 1663.601562 1895.769531 1665.128906 1895.769531 C 1666.648438 1895.769531 1669.660156 1892.738281 1668.171875 1888.199219 C 1666.648438 1877.589844 1686.339844 1826.089844 1707.550781 1779.128906 C 1710.589844 1770.03125 1715.121094 1762.46875 1715.121094 1760.949219 C 1715.121094 1759.429688 1737.851562 1704.898438 1751.488281 1673.078125 C 1754.5 1667.03125 1762.078125 1650.371094 1768.128906 1633.710938 C 1774.191406 1618.550781 1781.769531 1600.371094 1784.808594 1594.308594 C 1792.390625 1580.679688 1792.390625 1574.621094 1778.75 1560.988281 C 1765.121094 1541.300781 1752.980469 1521.601562 1756.019531 1512.511719 C 1757.539062 1501.910156 1766.609375 1498.878906 1802.980469 1488.28125 C 1828.71875 1480.699219 1834.808594 1477.671875 1842.351562 1467.070312 C 1848.441406 1459.488281 1851.449219 1451.921875 1851.449219 1450.410156 C 1851.449219 1447.378906 1860.550781 1429.199219 1890.828125 1365.570312 C 1895.390625 1351.929688 1910.550781 1320.121094 1922.660156 1292.851562 C 1981.71875 1158.03125 2043.828125 1030.789062 2107.460938 914.148438 L 2119.570312 891.410156 L 2149.878906 892.941406 C 2168.050781 892.941406 2184.730469 897.46875 2192.300781 900.511719 C 2199.878906 905.039062 2205.941406 905.039062 2207.460938 902.019531 C 2213.511719 895.960938 2221.089844 898.988281 2222.621094 905.039062 C 2224.109375 914.148438 2237.738281 914.148438 2239.261719 906.570312 C 2240.78125 900.511719 2265 900.511719 2271.089844 908.070312 C 2274.101562 911.121094 2280.160156 912.621094 2284.71875 911.121094 C 2295.308594 908.070312 2319.570312 962.621094 2343.789062 1050.480469 C 2357.421875 1091.371094 2401.359375 1264.078125 2410.429688 1301.949219 C 2413.46875 1318.609375 2418 1332.25 2418 1333.75 C 2418 1335.269531 2427.109375 1335.269531 2434.691406 1332.25 C 2448.320312 1329.21875 2451.359375 1329.21875 2458.898438 1335.269531 C 2464.988281 1341.328125 2466.480469 1341.328125 2461.949219 1336.789062 C 2457.410156 1330.71875 2458.898438 1329.21875 2471.050781 1326.191406 C 2487.691406 1323.140625 2496.789062 1332.25 2501.320312 1348.910156 C 2502.851562 1354.960938 2505.890625 1361.03125 2508.898438 1362.539062 C 2514.960938 1364.058594 2519.519531 1377.691406 2513.46875 1377.691406 C 2510.429688 1377.691406 2513.46875 1380.71875 2516.480469 1383.75 C 2524.058594 1388.300781 2521.011719 1400.410156 2514.960938 1395.871094 C 2513.46875 1394.351562 2510.429688 1394.351562 2510.429688 1395.871094 C 2510.429688 1398.898438 2505.890625 1400.410156 2499.839844 1401.929688 C 2493.75 1401.929688 2487.691406 1403.441406 2484.679688 1404.960938 C 2483.160156 1407.988281 2480.109375 1407.988281 2480.109375 1404.960938 C 2480.109375 1404.960938 2475.578125 1404.960938 2466.480469 1406.46875 C 2455.890625 1411.019531 2454.371094 1412.539062 2454.371094 1418.589844 C 2455.890625 1426.171875 2454.371094 1427.679688 2449.839844 1427.679688 C 2439.210938 1427.679688 2437.691406 1433.738281 2440.738281 1450.410156 C 2442.261719 1461.011719 2445.269531 1465.550781 2451.359375 1468.578125 C 2458.898438 1468.578125 2458.898438 1470.101562 2454.371094 1474.640625 C 2448.320312 1477.671875 2448.320312 1477.671875 2454.371094 1476.148438 C 2460.429688 1474.640625 2463.46875 1476.148438 2466.480469 1480.699219 C 2469.53125 1483.730469 2474.058594 1485.25 2474.058594 1483.730469 C 2477.101562 1482.21875 2475.578125 1479.179688 2472.539062 1477.671875 C 2469.53125 1476.148438 2468.011719 1471.609375 2471.050781 1468.578125 C 2472.539062 1465.550781 2474.058594 1467.070312 2480.109375 1471.609375 C 2481.640625 1476.148438 2484.679688 1477.671875 2484.679688 1474.640625 C 2484.679688 1471.609375 2489.21875 1471.609375 2496.789062 1471.609375 C 2511.949219 1474.640625 2516.480469 1468.578125 2504.371094 1462.519531 C 2501.320312 1461.011719 2499.839844 1457.980469 2499.839844 1454.941406 C 2504.371094 1450.410156 2514.960938 1453.429688 2513.46875 1461.011719 C 2513.46875 1462.519531 2516.480469 1464.039062 2521.011719 1464.039062 C 2524.058594 1464.039062 2530.121094 1465.550781 2533.148438 1468.578125 C 2537.691406 1470.101562 2524.058594 1476.148438 2492.261719 1482.21875 C 2489.21875 1483.730469 2484.679688 1485.25 2484.679688 1485.25 C 2484.679688 1485.25 2483.160156 1486.761719 2480.109375 1486.761719 C 2478.621094 1488.28125 2475.578125 1488.28125 2474.058594 1488.28125 C 2474.058594 1489.789062 2469.53125 1491.300781 2466.480469 1491.300781 C 2446.789062 1492.828125 2446.789062 1497.359375 2460.429688 1583.710938 C 2471.050781 1645.808594 2471.050781 1653.390625 2474.058594 1677.628906 C 2475.578125 1688.238281 2478.621094 1706.421875 2480.109375 1720.050781 C 2483.160156 1732.160156 2484.679688 1753.371094 2486.199219 1767.011719 C 2486.199219 1782.160156 2487.691406 1794.269531 2489.21875 1795.789062 C 2490.738281 1798.820312 2492.261719 1806.398438 2492.261719 1815.480469 C 2492.261719 1826.089844 2493.75 1835.179688 2493.75 1836.691406 C 2498.308594 1844.269531 2498.308594 1850.328125 2495.269531 1850.328125 C 2490.738281 1850.328125 2487.691406 1844.269531 2486.199219 1830.640625 Z M 2486.199219 1830.640625 "/>
	</g>
</svg>